<svg xmlns="http://www.w3.org/2000/svg" xmlns:xlink="http://www.w3.org/1999/xlink" width="500" zoomAndPan="magnify" viewBox="0 0 375 374.999991" height="500" preserveAspectRatio="xMidYMid meet" version="1.0"><defs><g/></defs><g fill="#4a1877" fill-opacity="1"><g transform="translate(0.0000045, 237.025501)"><g><path d="M 67.6875 -89.78125 L 67.6875 -84.21875 L 60.828125 -84.21875 L 60.828125 -71.578125 L 67.6875 -71.578125 L 67.6875 -66.984375 L 60.828125 -66.984375 L 60.828125 -54.34375 L 68.28125 -54.34375 L 68.28125 -49.609375 L 89.78125 -49.609375 L 89.78125 -89.78125 Z M 7.09375 -88.71875 L 7.09375 -50.4375 L 58.46875 -50.4375 L 58.46875 -88.71875 L 36.375 -88.71875 L 36.375 -82.09375 L 29.296875 -82.09375 L 29.296875 -88.71875 Z M 29.296875 -62.609375 L 29.296875 -69.8125 L 36.375 -69.8125 L 36.375 -62.609375 Z M 89.78125 -16.53125 L 89.78125 -46.0625 L 9.453125 -46.0625 L 9.453125 -33.078125 L 67.6875 -33.078125 L 67.6875 -29.53125 L 9.453125 -29.53125 L 9.453125 0 L 90.953125 0 L 90.953125 -13 L 31.65625 -13 L 31.65625 -16.53125 Z M 89.78125 -16.53125 "/></g></g></g><g fill="#4a1877" fill-opacity="1"><g transform="translate(92.132478, 237.025501)"><g><path d="M 67.6875 -89.78125 L 67.6875 -84.21875 L 60.828125 -84.21875 L 60.828125 -71.578125 L 67.6875 -71.578125 L 67.6875 -66.984375 L 60.828125 -66.984375 L 60.828125 -54.34375 L 68.28125 -54.34375 L 68.28125 -49.609375 L 89.78125 -49.609375 L 89.78125 -89.78125 Z M 7.09375 -88.71875 L 7.09375 -50.4375 L 58.46875 -50.4375 L 58.46875 -88.71875 L 36.375 -88.71875 L 36.375 -82.09375 L 29.296875 -82.09375 L 29.296875 -88.71875 Z M 29.296875 -62.609375 L 29.296875 -69.8125 L 36.375 -69.8125 L 36.375 -62.609375 Z M 89.78125 -16.53125 L 89.78125 -46.0625 L 9.453125 -46.0625 L 9.453125 -33.078125 L 67.6875 -33.078125 L 67.6875 -29.53125 L 9.453125 -29.53125 L 9.453125 0 L 90.953125 0 L 90.953125 -13 L 31.65625 -13 L 31.65625 -16.53125 Z M 89.78125 -16.53125 "/></g></g></g><g fill="#4a1877" fill-opacity="1"><g transform="translate(184.264952, 237.025501)"><g><path d="M 49.609375 -56.109375 C 41.265625 -46.109375 28.664062 -40.4375 11.8125 -39.09375 L 7.09375 -55.640625 C 16.382812 -56.347656 23.820312 -59.238281 29.40625 -64.3125 C 35 -69.394531 38.035156 -77.882812 38.515625 -89.78125 L 60.71875 -89.78125 C 61.1875 -77.882812 64.21875 -69.394531 69.8125 -64.3125 C 75.40625 -59.238281 82.847656 -56.347656 92.140625 -55.640625 L 87.40625 -39.09375 C 70.5625 -40.4375 57.960938 -46.109375 49.609375 -56.109375 Z M 60.828125 -37.796875 L 60.828125 -21.265625 L 92.140625 -21.265625 L 92.140625 -3.546875 L 7.09375 -3.546875 L 7.09375 -21.265625 L 38.390625 -21.265625 L 38.390625 -37.796875 Z M 60.828125 -37.796875 "/></g></g></g><g fill="#4a1877" fill-opacity="1"><g transform="translate(277.578615, 237.025501)"><g><path d="M 89.78125 -89.78125 L 67.5625 -89.78125 L 67.5625 0 L 89.78125 0 Z M 57.296875 -88.59375 L 7.09375 -88.59375 L 7.09375 -70.875 L 35.203125 -70.875 L 35.203125 -55.515625 L 7.09375 -55.515625 L 7.09375 -3.546875 L 59.65625 -3.546875 L 59.65625 -21.265625 L 29.296875 -21.265625 L 29.296875 -37.796875 L 57.296875 -37.796875 Z M 57.296875 -88.59375 "/></g></g></g><g fill="#fbaf56" fill-opacity="1"><g transform="translate(115.033379, 177.779409)"><g><path d="M 12.804688 -10.144531 L 10.5 -17.175781 L 10.417969 -17.175781 L 8.117188 -10.144531 L 0.796875 -10.144531 L 0.796875 -10.0625 L 6.714844 -5.773438 L 4.394531 1.296875 L 4.457031 1.316406 L 10.460938 -3.035156 L 16.464844 1.316406 L 16.527344 1.296875 L 14.203125 -5.773438 L 20.125 -10.0625 L 20.125 -10.144531 Z M 12.804688 -10.144531 "/></g></g></g></svg>